<mxfile host="app.diagrams.net" agent="Mozilla/5.0 (Windows NT 10.0; Win64; x64) AppleWebKit/537.36 (KHTML, like Gecko) Chrome/129.0.0.0 Safari/537.36" version="24.7.16">
  <diagram name="Page-1" id="1dO3XJyySSRr3p2aMC7i">
    <mxGraphModel dx="1434" dy="818" grid="1" gridSize="10" guides="1" tooltips="1" connect="1" arrows="1" fold="1" page="1" pageScale="1" pageWidth="850" pageHeight="1100" math="0" shadow="0">
      <root>
        <mxCell id="0" />
        <mxCell id="1" parent="0" />
        <mxCell id="P0xx4sEBL2Tq9ttn1NUn-1" value="EMPLOYEES" style="shape=table;startSize=25;container=1;collapsible=0;childLayout=tableLayout;fixedRows=1;rowLines=1;fontStyle=1;align=center;resizeLast=1;" vertex="1" parent="1">
          <mxGeometry x="110" y="231" width="124" height="91" as="geometry" />
        </mxCell>
        <mxCell id="P0xx4sEBL2Tq9ttn1NUn-2" style="shape=tableRow;horizontal=0;startSize=0;swimlaneHead=0;swimlaneBody=0;fillColor=none;collapsible=0;dropTarget=0;points=[[0,0.5],[1,0.5]];portConstraint=eastwest;top=0;left=0;right=0;bottom=0;" vertex="1" parent="P0xx4sEBL2Tq9ttn1NUn-1">
          <mxGeometry y="25" width="124" height="22" as="geometry" />
        </mxCell>
        <mxCell id="P0xx4sEBL2Tq9ttn1NUn-3" value="int" style="shape=partialRectangle;connectable=0;fillColor=none;top=0;left=0;bottom=0;right=0;align=left;spacingLeft=2;overflow=hidden;fontSize=11;" vertex="1" parent="P0xx4sEBL2Tq9ttn1NUn-2">
          <mxGeometry width="36" height="22" as="geometry">
            <mxRectangle width="36" height="22" as="alternateBounds" />
          </mxGeometry>
        </mxCell>
        <mxCell id="P0xx4sEBL2Tq9ttn1NUn-4" value="employeeID" style="shape=partialRectangle;connectable=0;fillColor=none;top=0;left=0;bottom=0;right=0;align=left;spacingLeft=2;overflow=hidden;fontSize=11;" vertex="1" parent="P0xx4sEBL2Tq9ttn1NUn-2">
          <mxGeometry x="36" width="88" height="22" as="geometry">
            <mxRectangle width="88" height="22" as="alternateBounds" />
          </mxGeometry>
        </mxCell>
        <mxCell id="P0xx4sEBL2Tq9ttn1NUn-5" style="shape=tableRow;horizontal=0;startSize=0;swimlaneHead=0;swimlaneBody=0;fillColor=none;collapsible=0;dropTarget=0;points=[[0,0.5],[1,0.5]];portConstraint=eastwest;top=0;left=0;right=0;bottom=0;" vertex="1" parent="P0xx4sEBL2Tq9ttn1NUn-1">
          <mxGeometry y="47" width="124" height="22" as="geometry" />
        </mxCell>
        <mxCell id="P0xx4sEBL2Tq9ttn1NUn-6" value="string" style="shape=partialRectangle;connectable=0;fillColor=none;top=0;left=0;bottom=0;right=0;align=left;spacingLeft=2;overflow=hidden;fontSize=11;" vertex="1" parent="P0xx4sEBL2Tq9ttn1NUn-5">
          <mxGeometry width="36" height="22" as="geometry">
            <mxRectangle width="36" height="22" as="alternateBounds" />
          </mxGeometry>
        </mxCell>
        <mxCell id="P0xx4sEBL2Tq9ttn1NUn-7" value="name" style="shape=partialRectangle;connectable=0;fillColor=none;top=0;left=0;bottom=0;right=0;align=left;spacingLeft=2;overflow=hidden;fontSize=11;" vertex="1" parent="P0xx4sEBL2Tq9ttn1NUn-5">
          <mxGeometry x="36" width="88" height="22" as="geometry">
            <mxRectangle width="88" height="22" as="alternateBounds" />
          </mxGeometry>
        </mxCell>
        <mxCell id="P0xx4sEBL2Tq9ttn1NUn-8" style="shape=tableRow;horizontal=0;startSize=0;swimlaneHead=0;swimlaneBody=0;fillColor=none;collapsible=0;dropTarget=0;points=[[0,0.5],[1,0.5]];portConstraint=eastwest;top=0;left=0;right=0;bottom=0;" vertex="1" parent="P0xx4sEBL2Tq9ttn1NUn-1">
          <mxGeometry y="69" width="124" height="22" as="geometry" />
        </mxCell>
        <mxCell id="P0xx4sEBL2Tq9ttn1NUn-9" value="string" style="shape=partialRectangle;connectable=0;fillColor=none;top=0;left=0;bottom=0;right=0;align=left;spacingLeft=2;overflow=hidden;fontSize=11;" vertex="1" parent="P0xx4sEBL2Tq9ttn1NUn-8">
          <mxGeometry width="36" height="22" as="geometry">
            <mxRectangle width="36" height="22" as="alternateBounds" />
          </mxGeometry>
        </mxCell>
        <mxCell id="P0xx4sEBL2Tq9ttn1NUn-10" value="department" style="shape=partialRectangle;connectable=0;fillColor=none;top=0;left=0;bottom=0;right=0;align=left;spacingLeft=2;overflow=hidden;fontSize=11;" vertex="1" parent="P0xx4sEBL2Tq9ttn1NUn-8">
          <mxGeometry x="36" width="88" height="22" as="geometry">
            <mxRectangle width="88" height="22" as="alternateBounds" />
          </mxGeometry>
        </mxCell>
        <mxCell id="P0xx4sEBL2Tq9ttn1NUn-11" value="SKILLS" style="shape=table;startSize=25;container=1;collapsible=0;childLayout=tableLayout;fixedRows=1;rowLines=1;fontStyle=1;align=center;resizeLast=1;" vertex="1" parent="1">
          <mxGeometry x="334" y="220" width="129" height="113" as="geometry" />
        </mxCell>
        <mxCell id="P0xx4sEBL2Tq9ttn1NUn-12" style="shape=tableRow;horizontal=0;startSize=0;swimlaneHead=0;swimlaneBody=0;fillColor=none;collapsible=0;dropTarget=0;points=[[0,0.5],[1,0.5]];portConstraint=eastwest;top=0;left=0;right=0;bottom=0;" vertex="1" parent="P0xx4sEBL2Tq9ttn1NUn-11">
          <mxGeometry y="25" width="129" height="22" as="geometry" />
        </mxCell>
        <mxCell id="P0xx4sEBL2Tq9ttn1NUn-13" value="int" style="shape=partialRectangle;connectable=0;fillColor=none;top=0;left=0;bottom=0;right=0;align=left;spacingLeft=2;overflow=hidden;fontSize=11;" vertex="1" parent="P0xx4sEBL2Tq9ttn1NUn-12">
          <mxGeometry width="36" height="22" as="geometry">
            <mxRectangle width="36" height="22" as="alternateBounds" />
          </mxGeometry>
        </mxCell>
        <mxCell id="P0xx4sEBL2Tq9ttn1NUn-14" value="skillID" style="shape=partialRectangle;connectable=0;fillColor=none;top=0;left=0;bottom=0;right=0;align=left;spacingLeft=2;overflow=hidden;fontSize=11;" vertex="1" parent="P0xx4sEBL2Tq9ttn1NUn-12">
          <mxGeometry x="36" width="93" height="22" as="geometry">
            <mxRectangle width="93" height="22" as="alternateBounds" />
          </mxGeometry>
        </mxCell>
        <mxCell id="P0xx4sEBL2Tq9ttn1NUn-15" style="shape=tableRow;horizontal=0;startSize=0;swimlaneHead=0;swimlaneBody=0;fillColor=none;collapsible=0;dropTarget=0;points=[[0,0.5],[1,0.5]];portConstraint=eastwest;top=0;left=0;right=0;bottom=0;" vertex="1" parent="P0xx4sEBL2Tq9ttn1NUn-11">
          <mxGeometry y="47" width="129" height="22" as="geometry" />
        </mxCell>
        <mxCell id="P0xx4sEBL2Tq9ttn1NUn-16" value="string" style="shape=partialRectangle;connectable=0;fillColor=none;top=0;left=0;bottom=0;right=0;align=left;spacingLeft=2;overflow=hidden;fontSize=11;" vertex="1" parent="P0xx4sEBL2Tq9ttn1NUn-15">
          <mxGeometry width="36" height="22" as="geometry">
            <mxRectangle width="36" height="22" as="alternateBounds" />
          </mxGeometry>
        </mxCell>
        <mxCell id="P0xx4sEBL2Tq9ttn1NUn-17" value="skillName" style="shape=partialRectangle;connectable=0;fillColor=none;top=0;left=0;bottom=0;right=0;align=left;spacingLeft=2;overflow=hidden;fontSize=11;" vertex="1" parent="P0xx4sEBL2Tq9ttn1NUn-15">
          <mxGeometry x="36" width="93" height="22" as="geometry">
            <mxRectangle width="93" height="22" as="alternateBounds" />
          </mxGeometry>
        </mxCell>
        <mxCell id="P0xx4sEBL2Tq9ttn1NUn-18" style="shape=tableRow;horizontal=0;startSize=0;swimlaneHead=0;swimlaneBody=0;fillColor=none;collapsible=0;dropTarget=0;points=[[0,0.5],[1,0.5]];portConstraint=eastwest;top=0;left=0;right=0;bottom=0;" vertex="1" parent="P0xx4sEBL2Tq9ttn1NUn-11">
          <mxGeometry y="69" width="129" height="22" as="geometry" />
        </mxCell>
        <mxCell id="P0xx4sEBL2Tq9ttn1NUn-19" value="string" style="shape=partialRectangle;connectable=0;fillColor=none;top=0;left=0;bottom=0;right=0;align=left;spacingLeft=2;overflow=hidden;fontSize=11;" vertex="1" parent="P0xx4sEBL2Tq9ttn1NUn-18">
          <mxGeometry width="36" height="22" as="geometry">
            <mxRectangle width="36" height="22" as="alternateBounds" />
          </mxGeometry>
        </mxCell>
        <mxCell id="P0xx4sEBL2Tq9ttn1NUn-20" value="skillCategory" style="shape=partialRectangle;connectable=0;fillColor=none;top=0;left=0;bottom=0;right=0;align=left;spacingLeft=2;overflow=hidden;fontSize=11;" vertex="1" parent="P0xx4sEBL2Tq9ttn1NUn-18">
          <mxGeometry x="36" width="93" height="22" as="geometry">
            <mxRectangle width="93" height="22" as="alternateBounds" />
          </mxGeometry>
        </mxCell>
        <mxCell id="P0xx4sEBL2Tq9ttn1NUn-21" style="shape=tableRow;horizontal=0;startSize=0;swimlaneHead=0;swimlaneBody=0;fillColor=none;collapsible=0;dropTarget=0;points=[[0,0.5],[1,0.5]];portConstraint=eastwest;top=0;left=0;right=0;bottom=0;" vertex="1" parent="P0xx4sEBL2Tq9ttn1NUn-11">
          <mxGeometry y="91" width="129" height="22" as="geometry" />
        </mxCell>
        <mxCell id="P0xx4sEBL2Tq9ttn1NUn-22" value="string" style="shape=partialRectangle;connectable=0;fillColor=none;top=0;left=0;bottom=0;right=0;align=left;spacingLeft=2;overflow=hidden;fontSize=11;" vertex="1" parent="P0xx4sEBL2Tq9ttn1NUn-21">
          <mxGeometry width="36" height="22" as="geometry">
            <mxRectangle width="36" height="22" as="alternateBounds" />
          </mxGeometry>
        </mxCell>
        <mxCell id="P0xx4sEBL2Tq9ttn1NUn-23" value="description" style="shape=partialRectangle;connectable=0;fillColor=none;top=0;left=0;bottom=0;right=0;align=left;spacingLeft=2;overflow=hidden;fontSize=11;" vertex="1" parent="P0xx4sEBL2Tq9ttn1NUn-21">
          <mxGeometry x="36" width="93" height="22" as="geometry">
            <mxRectangle width="93" height="22" as="alternateBounds" />
          </mxGeometry>
        </mxCell>
        <mxCell id="P0xx4sEBL2Tq9ttn1NUn-24" value="SKILL_LEVELS" style="shape=table;startSize=25;container=1;collapsible=0;childLayout=tableLayout;fixedRows=1;rowLines=1;fontStyle=1;align=center;resizeLast=1;" vertex="1" parent="1">
          <mxGeometry x="563" y="242" width="118" height="69" as="geometry" />
        </mxCell>
        <mxCell id="P0xx4sEBL2Tq9ttn1NUn-25" style="shape=tableRow;horizontal=0;startSize=0;swimlaneHead=0;swimlaneBody=0;fillColor=none;collapsible=0;dropTarget=0;points=[[0,0.5],[1,0.5]];portConstraint=eastwest;top=0;left=0;right=0;bottom=0;" vertex="1" parent="P0xx4sEBL2Tq9ttn1NUn-24">
          <mxGeometry y="25" width="118" height="22" as="geometry" />
        </mxCell>
        <mxCell id="P0xx4sEBL2Tq9ttn1NUn-26" value="int" style="shape=partialRectangle;connectable=0;fillColor=none;top=0;left=0;bottom=0;right=0;align=left;spacingLeft=2;overflow=hidden;fontSize=11;" vertex="1" parent="P0xx4sEBL2Tq9ttn1NUn-25">
          <mxGeometry width="36" height="22" as="geometry">
            <mxRectangle width="36" height="22" as="alternateBounds" />
          </mxGeometry>
        </mxCell>
        <mxCell id="P0xx4sEBL2Tq9ttn1NUn-27" value="levelID" style="shape=partialRectangle;connectable=0;fillColor=none;top=0;left=0;bottom=0;right=0;align=left;spacingLeft=2;overflow=hidden;fontSize=11;" vertex="1" parent="P0xx4sEBL2Tq9ttn1NUn-25">
          <mxGeometry x="36" width="82" height="22" as="geometry">
            <mxRectangle width="82" height="22" as="alternateBounds" />
          </mxGeometry>
        </mxCell>
        <mxCell id="P0xx4sEBL2Tq9ttn1NUn-28" style="shape=tableRow;horizontal=0;startSize=0;swimlaneHead=0;swimlaneBody=0;fillColor=none;collapsible=0;dropTarget=0;points=[[0,0.5],[1,0.5]];portConstraint=eastwest;top=0;left=0;right=0;bottom=0;" vertex="1" parent="P0xx4sEBL2Tq9ttn1NUn-24">
          <mxGeometry y="47" width="118" height="22" as="geometry" />
        </mxCell>
        <mxCell id="P0xx4sEBL2Tq9ttn1NUn-29" value="string" style="shape=partialRectangle;connectable=0;fillColor=none;top=0;left=0;bottom=0;right=0;align=left;spacingLeft=2;overflow=hidden;fontSize=11;" vertex="1" parent="P0xx4sEBL2Tq9ttn1NUn-28">
          <mxGeometry width="36" height="22" as="geometry">
            <mxRectangle width="36" height="22" as="alternateBounds" />
          </mxGeometry>
        </mxCell>
        <mxCell id="P0xx4sEBL2Tq9ttn1NUn-30" value="levelName" style="shape=partialRectangle;connectable=0;fillColor=none;top=0;left=0;bottom=0;right=0;align=left;spacingLeft=2;overflow=hidden;fontSize=11;" vertex="1" parent="P0xx4sEBL2Tq9ttn1NUn-28">
          <mxGeometry x="36" width="82" height="22" as="geometry">
            <mxRectangle width="82" height="22" as="alternateBounds" />
          </mxGeometry>
        </mxCell>
        <mxCell id="P0xx4sEBL2Tq9ttn1NUn-31" value="EMPLOYEE_SKILLS" style="shape=table;startSize=25;container=1;collapsible=0;childLayout=tableLayout;fixedRows=1;rowLines=1;fontStyle=1;align=center;resizeLast=1;" vertex="1" parent="1">
          <mxGeometry x="334" y="432" width="129" height="113" as="geometry" />
        </mxCell>
        <mxCell id="P0xx4sEBL2Tq9ttn1NUn-32" style="shape=tableRow;horizontal=0;startSize=0;swimlaneHead=0;swimlaneBody=0;fillColor=none;collapsible=0;dropTarget=0;points=[[0,0.5],[1,0.5]];portConstraint=eastwest;top=0;left=0;right=0;bottom=0;" vertex="1" parent="P0xx4sEBL2Tq9ttn1NUn-31">
          <mxGeometry y="25" width="129" height="22" as="geometry" />
        </mxCell>
        <mxCell id="P0xx4sEBL2Tq9ttn1NUn-33" value="int" style="shape=partialRectangle;connectable=0;fillColor=none;top=0;left=0;bottom=0;right=0;align=left;spacingLeft=2;overflow=hidden;fontSize=11;" vertex="1" parent="P0xx4sEBL2Tq9ttn1NUn-32">
          <mxGeometry width="18" height="22" as="geometry">
            <mxRectangle width="18" height="22" as="alternateBounds" />
          </mxGeometry>
        </mxCell>
        <mxCell id="P0xx4sEBL2Tq9ttn1NUn-34" value="employeeSkillID" style="shape=partialRectangle;connectable=0;fillColor=none;top=0;left=0;bottom=0;right=0;align=left;spacingLeft=2;overflow=hidden;fontSize=11;" vertex="1" parent="P0xx4sEBL2Tq9ttn1NUn-32">
          <mxGeometry x="18" width="111" height="22" as="geometry">
            <mxRectangle width="111" height="22" as="alternateBounds" />
          </mxGeometry>
        </mxCell>
        <mxCell id="P0xx4sEBL2Tq9ttn1NUn-35" style="shape=tableRow;horizontal=0;startSize=0;swimlaneHead=0;swimlaneBody=0;fillColor=none;collapsible=0;dropTarget=0;points=[[0,0.5],[1,0.5]];portConstraint=eastwest;top=0;left=0;right=0;bottom=0;" vertex="1" parent="P0xx4sEBL2Tq9ttn1NUn-31">
          <mxGeometry y="47" width="129" height="22" as="geometry" />
        </mxCell>
        <mxCell id="P0xx4sEBL2Tq9ttn1NUn-36" value="int" style="shape=partialRectangle;connectable=0;fillColor=none;top=0;left=0;bottom=0;right=0;align=left;spacingLeft=2;overflow=hidden;fontSize=11;" vertex="1" parent="P0xx4sEBL2Tq9ttn1NUn-35">
          <mxGeometry width="18" height="22" as="geometry">
            <mxRectangle width="18" height="22" as="alternateBounds" />
          </mxGeometry>
        </mxCell>
        <mxCell id="P0xx4sEBL2Tq9ttn1NUn-37" value="employeeID" style="shape=partialRectangle;connectable=0;fillColor=none;top=0;left=0;bottom=0;right=0;align=left;spacingLeft=2;overflow=hidden;fontSize=11;" vertex="1" parent="P0xx4sEBL2Tq9ttn1NUn-35">
          <mxGeometry x="18" width="111" height="22" as="geometry">
            <mxRectangle width="111" height="22" as="alternateBounds" />
          </mxGeometry>
        </mxCell>
        <mxCell id="P0xx4sEBL2Tq9ttn1NUn-38" style="shape=tableRow;horizontal=0;startSize=0;swimlaneHead=0;swimlaneBody=0;fillColor=none;collapsible=0;dropTarget=0;points=[[0,0.5],[1,0.5]];portConstraint=eastwest;top=0;left=0;right=0;bottom=0;" vertex="1" parent="P0xx4sEBL2Tq9ttn1NUn-31">
          <mxGeometry y="69" width="129" height="22" as="geometry" />
        </mxCell>
        <mxCell id="P0xx4sEBL2Tq9ttn1NUn-39" value="int" style="shape=partialRectangle;connectable=0;fillColor=none;top=0;left=0;bottom=0;right=0;align=left;spacingLeft=2;overflow=hidden;fontSize=11;" vertex="1" parent="P0xx4sEBL2Tq9ttn1NUn-38">
          <mxGeometry width="18" height="22" as="geometry">
            <mxRectangle width="18" height="22" as="alternateBounds" />
          </mxGeometry>
        </mxCell>
        <mxCell id="P0xx4sEBL2Tq9ttn1NUn-40" value="skillID" style="shape=partialRectangle;connectable=0;fillColor=none;top=0;left=0;bottom=0;right=0;align=left;spacingLeft=2;overflow=hidden;fontSize=11;" vertex="1" parent="P0xx4sEBL2Tq9ttn1NUn-38">
          <mxGeometry x="18" width="111" height="22" as="geometry">
            <mxRectangle width="111" height="22" as="alternateBounds" />
          </mxGeometry>
        </mxCell>
        <mxCell id="P0xx4sEBL2Tq9ttn1NUn-41" style="shape=tableRow;horizontal=0;startSize=0;swimlaneHead=0;swimlaneBody=0;fillColor=none;collapsible=0;dropTarget=0;points=[[0,0.5],[1,0.5]];portConstraint=eastwest;top=0;left=0;right=0;bottom=0;" vertex="1" parent="P0xx4sEBL2Tq9ttn1NUn-31">
          <mxGeometry y="91" width="129" height="22" as="geometry" />
        </mxCell>
        <mxCell id="P0xx4sEBL2Tq9ttn1NUn-42" value="int" style="shape=partialRectangle;connectable=0;fillColor=none;top=0;left=0;bottom=0;right=0;align=left;spacingLeft=2;overflow=hidden;fontSize=11;" vertex="1" parent="P0xx4sEBL2Tq9ttn1NUn-41">
          <mxGeometry width="18" height="22" as="geometry">
            <mxRectangle width="18" height="22" as="alternateBounds" />
          </mxGeometry>
        </mxCell>
        <mxCell id="P0xx4sEBL2Tq9ttn1NUn-43" value="levelID" style="shape=partialRectangle;connectable=0;fillColor=none;top=0;left=0;bottom=0;right=0;align=left;spacingLeft=2;overflow=hidden;fontSize=11;" vertex="1" parent="P0xx4sEBL2Tq9ttn1NUn-41">
          <mxGeometry x="18" width="111" height="22" as="geometry">
            <mxRectangle width="111" height="22" as="alternateBounds" />
          </mxGeometry>
        </mxCell>
        <mxCell id="P0xx4sEBL2Tq9ttn1NUn-44" value="has" style="curved=1;startArrow=ERmandOne;startSize=10;;endArrow=ERmany;endSize=10;;exitX=0.5;exitY=1;entryX=0;entryY=0.23;rounded=0;" edge="1" parent="1" source="P0xx4sEBL2Tq9ttn1NUn-1" target="P0xx4sEBL2Tq9ttn1NUn-31">
          <mxGeometry relative="1" as="geometry">
            <Array as="points">
              <mxPoint x="172" y="382" />
            </Array>
          </mxGeometry>
        </mxCell>
        <mxCell id="P0xx4sEBL2Tq9ttn1NUn-45" value="requires" style="curved=1;startArrow=ERmandOne;startSize=10;;endArrow=ERmany;endSize=10;;exitX=0.5;exitY=1;entryX=0.5;entryY=0;rounded=0;" edge="1" parent="1" source="P0xx4sEBL2Tq9ttn1NUn-11" target="P0xx4sEBL2Tq9ttn1NUn-31">
          <mxGeometry relative="1" as="geometry">
            <Array as="points" />
          </mxGeometry>
        </mxCell>
        <mxCell id="P0xx4sEBL2Tq9ttn1NUn-46" value="defines" style="curved=1;startArrow=ERmandOne;startSize=10;;endArrow=ERmany;endSize=10;;exitX=0.5;exitY=1;entryX=1;entryY=0.23;rounded=0;" edge="1" parent="1" source="P0xx4sEBL2Tq9ttn1NUn-24" target="P0xx4sEBL2Tq9ttn1NUn-31">
          <mxGeometry relative="1" as="geometry">
            <Array as="points">
              <mxPoint x="622" y="382" />
            </Array>
          </mxGeometry>
        </mxCell>
      </root>
    </mxGraphModel>
  </diagram>
</mxfile>
